<svg width="45" height="26" viewBox="0 0 45 26" fill="none" xmlns="http://www.w3.org/2000/svg">
<path d="M33.6719 8.40228C33.5958 8.31543 33.5021 8.24577 33.3971 8.19797C33.292 8.15016 33.1779 8.12529 33.0625 8.12501H28.5562L23.1094 1.90228C23.0331 1.81582 22.9394 1.74658 22.8343 1.69915C22.7292 1.65173 22.6153 1.6272 22.5 1.6272C22.3847 1.6272 22.2708 1.65173 22.1657 1.69915C22.0606 1.74658 21.9669 1.81582 21.8906 1.90228L16.4438 8.12501H11.9375C11.8217 8.12501 11.7072 8.14975 11.6018 8.19759C11.4963 8.24542 11.4023 8.31525 11.3261 8.40238C11.2498 8.48952 11.193 8.59195 11.1596 8.70281C11.1261 8.81366 11.1168 8.93039 11.1321 9.04517L12.6626 20.5278C12.716 20.9175 12.9085 21.2748 13.2045 21.5339C13.5005 21.7929 13.8801 21.9363 14.2734 21.9375H30.7266C31.1199 21.9363 31.4995 21.7929 31.7955 21.5339C32.0915 21.2748 32.2839 20.9175 32.3373 20.5278L33.8679 9.04517C33.883 8.93023 33.8733 8.81339 33.8395 8.70251C33.8057 8.59162 33.7485 8.48925 33.6719 8.40228ZM17.7875 18.6875C17.7601 18.689 17.7326 18.689 17.7052 18.6875C17.5031 18.6885 17.3079 18.6142 17.1576 18.479C17.0074 18.3437 16.9129 18.1574 16.8927 17.9563L16.324 12.2688C16.3024 12.0544 16.3669 11.8402 16.5033 11.6733C16.6397 11.5065 16.8368 11.4006 17.0512 11.3791C17.2656 11.3575 17.4798 11.422 17.6466 11.5584C17.8135 11.6948 17.9193 11.8919 17.9409 12.1063L18.5096 17.7938C18.5324 18.008 18.4691 18.2226 18.3336 18.3902C18.1982 18.5578 18.0018 18.6647 17.7875 18.6875ZM23.3125 17.875C23.3125 18.0905 23.2269 18.2972 23.0745 18.4495C22.9221 18.6019 22.7155 18.6875 22.5 18.6875C22.2845 18.6875 22.0778 18.6019 21.9255 18.4495C21.7731 18.2972 21.6875 18.0905 21.6875 17.875V12.1875C21.6875 11.972 21.7731 11.7654 21.9255 11.613C22.0778 11.4606 22.2845 11.375 22.5 11.375C22.7155 11.375 22.9221 11.4606 23.0745 11.613C23.2269 11.7654 23.3125 11.972 23.3125 12.1875V17.875ZM18.603 8.12501L22.5 3.6715L26.3969 8.12501H18.603ZM28.6709 12.2688L28.1022 17.9563C28.0821 18.1565 27.9883 18.3421 27.8392 18.4772C27.69 18.6123 27.496 18.6873 27.2948 18.6875C27.2674 18.689 27.2399 18.689 27.2125 18.6875C27.1063 18.6768 27.0033 18.6454 26.9093 18.5949C26.8153 18.5444 26.7322 18.4759 26.6646 18.3933C26.5971 18.3107 26.5465 18.2156 26.5157 18.1134C26.485 18.0112 26.4746 17.904 26.4853 17.7978L27.0541 12.1103C27.0756 11.8959 27.1814 11.6988 27.3483 11.5625C27.5151 11.4261 27.7293 11.3616 27.9437 11.3831C28.1582 11.4047 28.3552 11.5105 28.4916 11.6774C28.628 11.8442 28.6925 12.0584 28.6709 12.2728V12.2688Z" fill="#707070"/>
</svg>
