<svg width="23" height="26" viewBox="0 0 23 26" fill="none" xmlns="http://www.w3.org/2000/svg">
<path d="M11.5 0L23 6.5V19.5L11.5 26L0 19.5V6.5L11.5 0Z" fill="#FAA629"/>
<path fill-rule="evenodd" clip-rule="evenodd" d="M11.5 20.7183C15.9995 20.7183 19.6471 17.2627 19.6471 13C19.6471 8.73732 15.9995 5.28173 11.5 5.28173C7.0005 5.28173 3.35294 8.73732 3.35294 13C3.35294 17.2627 7.0005 20.7183 11.5 20.7183ZM11.5 22C16.7467 22 21 17.9706 21 13C21 8.02944 16.7467 4 11.5 4C6.25329 4 2 8.02944 2 13C2 17.9706 6.25329 22 11.5 22Z" fill="white"/>
<path fill-rule="evenodd" clip-rule="evenodd" d="M11.5017 9.16663V9.16663C11.912 9.16797 12.3206 9.22026 12.718 9.32232C13.0077 9.39672 13.1823 9.69193 13.1079 9.98168C13.0335 10.2714 12.7383 10.446 12.4485 10.3716C12.1384 10.292 11.8196 10.2511 11.4994 10.25C11.1756 10.2505 10.8529 10.2872 10.5372 10.3593C10.2456 10.4259 9.95514 10.2435 9.88852 9.95188C9.8219 9.66024 10.0043 9.36981 10.296 9.30319C10.6907 9.21302 11.0942 9.16722 11.4991 9.16663L11.5017 9.16663ZM7.29125 11.9297C7.56016 12.0608 7.6719 12.385 7.54082 12.654C7.30265 13.1426 7.16659 13.6895 7.16659 14.2821C7.16659 16.3498 8.99487 17.8333 11.4999 17.8333C13.9993 17.8333 15.8333 16.2949 15.8333 14.2821C15.8333 13.73 15.682 13.1823 15.4088 12.6724C15.2676 12.4087 15.3669 12.0804 15.6306 11.9391C15.8943 11.7979 16.2226 11.8972 16.3638 12.1609C16.7104 12.8079 16.9166 13.5299 16.9166 14.2821C16.9166 17.0859 14.3847 18.9166 11.4999 18.9166C8.6208 18.9166 6.08325 17.1501 6.08325 14.2821C6.08325 13.5195 6.25919 12.8108 6.56701 12.1793C6.69809 11.9104 7.02234 11.7986 7.29125 11.9297Z" fill="white"/>
<path fill-rule="evenodd" clip-rule="evenodd" d="M7.18235 9.09814C7.4252 9.0296 7.85763 9.02311 8.3739 9.16494C8.93232 9.31836 9.49513 9.62135 9.8934 10.0686C10.0923 10.292 10.4347 10.3118 10.6582 10.1129C10.8816 9.91393 10.9014 9.57154 10.7024 9.34813C10.136 8.71203 9.37417 8.31627 8.66089 8.12031C7.96654 7.92955 7.22028 7.90266 6.68713 8.12513C6.40006 8.24491 6.25358 8.49038 6.1793 8.685C6.10368 8.88314 6.07143 9.10639 6.05858 9.31701C6.03263 9.74203 6.07917 10.2489 6.14471 10.7142C6.21116 11.1861 6.30152 11.6445 6.37465 11.9828C6.41133 12.1526 6.44397 12.2934 6.46754 12.3923C6.47933 12.4417 6.48887 12.4807 6.49554 12.5077L6.50331 12.5389L6.50544 12.5473L6.50622 12.5504C6.50624 12.5504 6.50632 12.5508 7.03113 12.4167L6.50622 12.5504C6.58026 12.8402 6.87535 13.0155 7.1652 12.9415C7.45502 12.8675 7.62996 12.5725 7.55596 12.2827C7.55596 12.2827 7.55597 12.2827 7.55596 12.2827L7.55554 12.281L7.5539 12.2745L7.54714 12.2474C7.54116 12.2233 7.53235 12.1873 7.52133 12.141C7.49926 12.0485 7.46837 11.9152 7.43354 11.754C7.36363 11.4305 7.27896 10.9999 7.21745 10.5631C7.15502 10.1198 7.12065 9.69838 7.1399 9.38301C7.14817 9.24745 7.1652 9.15491 7.18235 9.09814Z" fill="white"/>
<path fill-rule="evenodd" clip-rule="evenodd" d="M14.2966 8.12141C14.991 7.93065 15.7373 7.90376 16.2704 8.12623C16.5575 8.24601 16.704 8.49148 16.7783 8.6861C16.8539 8.88423 16.8861 9.10749 16.899 9.31811C16.9249 9.74313 16.8784 10.25 16.8129 10.7153C16.7464 11.1872 16.656 11.6456 16.5829 11.9839C16.5462 12.1537 16.5136 12.2945 16.49 12.3934C16.4782 12.4428 16.4687 12.4818 16.462 12.5088L16.4543 12.54L16.4521 12.5484L16.4514 12.5515C16.4513 12.5515 16.4513 12.5519 15.9264 12.4178L16.4514 12.5515C16.3773 12.8413 16.0822 13.0166 15.7924 12.9426C15.5026 12.8686 15.3276 12.5736 15.4016 12.2838L15.402 12.2821L15.4037 12.2756L15.4104 12.2485C15.4164 12.2244 15.4252 12.1884 15.4362 12.1421C15.4583 12.0496 15.4892 11.9163 15.524 11.7551C15.5939 11.4316 15.6786 11.001 15.7401 10.5642C15.8026 10.1209 15.8369 9.69948 15.8177 9.38411C15.8094 9.24855 15.7924 9.15601 15.7752 9.09923C15.5324 9.0307 15.0999 9.0242 14.5836 9.16604C14.0251 9.31946 13.4621 9.62248 13.0635 10.0698C12.8645 10.2932 12.5221 10.3129 12.2988 10.1139C12.0754 9.91487 12.0557 9.57247 12.2547 9.34911C12.8214 8.7131 13.5833 8.31736 14.2966 8.12141Z" fill="white"/>
<path fill-rule="evenodd" clip-rule="evenodd" d="M9.33341 14.0416C9.63257 14.0416 9.87508 14.2841 9.87508 14.5833V14.8541C9.87508 15.1533 9.63257 15.3958 9.33341 15.3958C9.03426 15.3958 8.79175 15.1533 8.79175 14.8541V14.5833C8.79175 14.2841 9.03426 14.0416 9.33341 14.0416Z" fill="white"/>
<path fill-rule="evenodd" clip-rule="evenodd" d="M13.6667 14.0416C13.9658 14.0416 14.2083 14.2841 14.2083 14.5833V14.8541C14.2083 15.1533 13.9658 15.3958 13.6667 15.3958C13.3675 15.3958 13.125 15.1533 13.125 14.8541V14.5833C13.125 14.2841 13.3675 14.0416 13.6667 14.0416Z" fill="white"/>
<path fill-rule="evenodd" clip-rule="evenodd" d="M10.5932 15.5948C10.6771 15.3923 10.8746 15.2604 11.0937 15.2604H11.9062C12.1253 15.2604 12.3228 15.3923 12.4066 15.5948C12.4905 15.7972 12.4441 16.0301 12.2892 16.1851L11.883 16.5913C11.6714 16.8028 11.3285 16.8028 11.1169 16.5913L10.7107 16.1851C10.5558 16.0301 10.5094 15.7972 10.5932 15.5948Z" fill="white"/>
</svg>
