<svg width="45" height="26" viewBox="0 0 45 26" fill="none" xmlns="http://www.w3.org/2000/svg">
<path d="M30.625 3.25H14.375C13.944 3.25 13.5307 3.4212 13.226 3.72595C12.9212 4.0307 12.75 4.44402 12.75 4.875V21.125C12.75 21.556 12.9212 21.9693 13.226 22.274C13.5307 22.5788 13.944 22.75 14.375 22.75H30.625C31.056 22.75 31.4693 22.5788 31.774 22.274C32.0788 21.9693 32.25 21.556 32.25 21.125V4.875C32.25 4.44402 32.0788 4.0307 31.774 3.72595C31.4693 3.4212 31.056 3.25 30.625 3.25ZM29 18.6875H16C15.7845 18.6875 15.5778 18.6019 15.4255 18.4495C15.2731 18.2972 15.1875 18.0905 15.1875 17.875C15.1875 17.6595 15.2731 17.4528 15.4255 17.3005C15.5778 17.1481 15.7845 17.0625 16 17.0625H29C29.2155 17.0625 29.4222 17.1481 29.5745 17.3005C29.7269 17.4528 29.8125 17.6595 29.8125 17.875C29.8125 18.0905 29.7269 18.2972 29.5745 18.4495C29.4222 18.6019 29.2155 18.6875 29 18.6875ZM29 13.8125H16C15.7845 13.8125 15.5778 13.7269 15.4255 13.5745C15.2731 13.4222 15.1875 13.2155 15.1875 13C15.1875 12.7845 15.2731 12.5778 15.4255 12.4255C15.5778 12.2731 15.7845 12.1875 16 12.1875H29C29.2155 12.1875 29.4222 12.2731 29.5745 12.4255C29.7269 12.5778 29.8125 12.7845 29.8125 13C29.8125 13.2155 29.7269 13.4222 29.5745 13.5745C29.4222 13.7269 29.2155 13.8125 29 13.8125ZM29 8.9375H16C15.7845 8.9375 15.5778 8.8519 15.4255 8.69952C15.2731 8.54715 15.1875 8.34049 15.1875 8.125C15.1875 7.90951 15.2731 7.70285 15.4255 7.55048C15.5778 7.3981 15.7845 7.3125 16 7.3125H29C29.2155 7.3125 29.4222 7.3981 29.5745 7.55048C29.7269 7.70285 29.8125 7.90951 29.8125 8.125C29.8125 8.34049 29.7269 8.54715 29.5745 8.69952C29.4222 8.8519 29.2155 8.9375 29 8.9375Z" fill="#707070"/>
</svg>
