<svg width="22" height="20" viewBox="0 0 22 20" fill="none" xmlns="http://www.w3.org/2000/svg">
<path fill-rule="evenodd" clip-rule="evenodd" d="M3.95076 0.480999C4.72869 0.157977 5.56273 -0.00830078 6.40506 -0.00830078C7.24739 -0.00830078 8.08144 0.157978 8.85937 0.480999C9.6373 0.80402 10.3438 1.27743 10.9384 1.87408L10.9417 1.87742L11.0001 1.93653L11.0584 1.87743L11.0617 1.87408C11.6563 1.27743 12.3628 0.80402 13.1408 0.480999C13.9187 0.157978 14.7527 -0.00830078 15.5951 -0.00830078C16.4374 -0.00830078 17.2714 0.157977 18.0494 0.480999C18.827 0.803909 19.5333 1.2771 20.1278 1.87346C22.6728 4.41916 22.7294 8.62831 19.7137 11.7005L19.7072 11.7071L11.7072 19.7071C11.5196 19.8946 11.2653 20 11.0001 20C10.7348 20 10.4805 19.8946 10.293 19.7071L2.2864 11.7005C-0.729301 8.62833 -0.672681 4.41915 1.87235 1.87346C2.4668 1.2771 3.1731 0.803908 3.95076 0.480999ZM6.40506 1.9917C5.82596 1.9917 5.25255 2.10602 4.71773 2.32809C4.1829 2.55017 3.69717 2.87564 3.2884 3.28584L3.28717 3.28706C1.59356 4.98068 1.38982 7.92921 3.71058 10.2963L11.0001 17.5857L18.2895 10.2963C20.6103 7.92922 20.4066 4.98068 18.713 3.28706L18.7117 3.28584C18.303 2.87564 17.8172 2.55017 17.2824 2.32809C16.7476 2.10602 16.1742 1.9917 15.5951 1.9917C15.016 1.9917 14.4426 2.10602 13.9077 2.32809C13.3736 2.54988 12.8884 2.87478 12.48 3.28422C12.4795 3.28476 12.4789 3.2853 12.4784 3.28584L11.7117 4.06249C11.5238 4.25282 11.2675 4.35996 11.0001 4.35996C10.7326 4.35996 10.4763 4.25282 10.2884 4.06249L9.52173 3.28584C9.52119 3.2853 9.52065 3.28476 9.52012 3.28422C9.11168 2.87478 8.62652 2.54988 8.0924 2.32809C7.55757 2.10602 6.98416 1.9917 6.40506 1.9917Z" fill="#171717"/>
</svg>
