<svg width="27" height="26" viewBox="0 0 27 26" fill="none" xmlns="http://www.w3.org/2000/svg">
<path d="M23.25 12.1875V21.9375C23.25 22.153 23.1644 22.3596 23.012 22.512C22.8597 22.6644 22.653 22.75 22.4375 22.75H16.75C16.5345 22.75 16.3278 22.6644 16.1755 22.512C16.0231 22.3596 15.9375 22.153 15.9375 21.9375V16.6562C15.9375 16.5485 15.8947 16.4452 15.8185 16.369C15.7423 16.2928 15.639 16.25 15.5312 16.25H11.4688C11.361 16.25 11.2577 16.2928 11.1815 16.369C11.1053 16.4452 11.0625 16.5485 11.0625 16.6562V21.9375C11.0625 22.153 10.9769 22.3596 10.8245 22.512C10.6722 22.6644 10.4655 22.75 10.25 22.75H4.5625C4.34701 22.75 4.14035 22.6644 3.98798 22.512C3.8356 22.3596 3.75 22.153 3.75 21.9375V12.1875C3.7502 11.7566 3.92154 11.3434 4.22633 11.0388L12.3513 2.91381C12.656 2.60929 13.0692 2.43823 13.5 2.43823C13.9308 2.43823 14.344 2.60929 14.6487 2.91381L22.7737 11.0388C23.0785 11.3434 23.2498 11.7566 23.25 12.1875Z" fill="#009951"/>
</svg>
