<svg width="26" height="26" viewBox="0 0 26 26" fill="none" xmlns="http://www.w3.org/2000/svg">
<path d="M22.75 12.1875V21.9375C22.75 22.153 22.6644 22.3596 22.512 22.512C22.3597 22.6644 22.153 22.75 21.9375 22.75H16.25C16.0345 22.75 15.8278 22.6644 15.6755 22.512C15.5231 22.3596 15.4375 22.153 15.4375 21.9375V16.6562C15.4375 16.5485 15.3947 16.4452 15.3185 16.369C15.2423 16.2928 15.139 16.25 15.0312 16.25H10.9688C10.861 16.25 10.7577 16.2928 10.6815 16.369C10.6053 16.4452 10.5625 16.5485 10.5625 16.6562V21.9375C10.5625 22.153 10.4769 22.3596 10.3245 22.512C10.1722 22.6644 9.96549 22.75 9.75 22.75H4.0625C3.84701 22.75 3.64035 22.6644 3.48798 22.512C3.3356 22.3596 3.25 22.153 3.25 21.9375V12.1875C3.2502 11.7566 3.42154 11.3434 3.72633 11.0388L11.8513 2.91381C12.156 2.60929 12.5692 2.43823 13 2.43823C13.4308 2.43823 13.844 2.60929 14.1487 2.91381L22.2737 11.0388C22.5785 11.3434 22.7498 11.7566 22.75 12.1875Z" fill="#707070"/>
</svg>
