<svg width="16" height="12" viewBox="0 0 16 12" fill="none" xmlns="http://www.w3.org/2000/svg">
<path fill-rule="evenodd" clip-rule="evenodd" d="M2.66675 1.33333C2.29856 1.33333 2.00008 1.63181 2.00008 2V10C2.00008 10.3682 2.29856 10.6667 2.66675 10.6667H13.3334C13.7016 10.6667 14.0001 10.3682 14.0001 10V2C14.0001 1.63181 13.7016 1.33333 13.3334 1.33333H2.66675ZM0.666748 2C0.666748 0.895431 1.56218 0 2.66675 0H13.3334C14.438 0 15.3334 0.895431 15.3334 2V10C15.3334 11.1046 14.438 12 13.3334 12H2.66675C1.56218 12 0.666748 11.1046 0.666748 10V2Z" fill="#171717"/>
</svg>
