<svg width="16" height="16" viewBox="0 0 16 16" fill="none" xmlns="http://www.w3.org/2000/svg">
<path fill-rule="evenodd" clip-rule="evenodd" d="M2.66675 3.33333C2.29856 3.33333 2.00008 3.63181 2.00008 4V12C2.00008 12.3682 2.29856 12.6667 2.66675 12.6667H13.3334C13.7016 12.6667 14.0001 12.3682 14.0001 12V4C14.0001 3.63181 13.7016 3.33333 13.3334 3.33333H2.66675ZM0.666748 4C0.666748 2.89543 1.56218 2 2.66675 2H13.3334C14.438 2 15.3334 2.89543 15.3334 4V12C15.3334 13.1046 14.438 14 13.3334 14H2.66675C1.56218 14 0.666748 13.1046 0.666748 12V4Z" fill="#171717"/>
<path fill-rule="evenodd" clip-rule="evenodd" d="M0.770582 4.30912C0.968052 3.99836 1.38005 3.90652 1.69081 4.10399L7.66869 7.90265C7.76808 7.96453 7.88282 7.99734 7.99992 7.99734C8.11702 7.99734 8.23176 7.96453 8.33115 7.90265C8.33165 7.90234 8.33214 7.90203 8.33264 7.90172L14.309 4.10399C14.6198 3.90652 15.0318 3.99836 15.2293 4.30912C15.4267 4.61987 15.3349 5.03187 15.0241 5.22934L9.04055 9.03162C8.72864 9.22704 8.368 9.33068 7.99992 9.33068C7.63185 9.33068 7.27121 9.22703 6.9593 9.03161L6.9557 9.02935L0.975703 5.22934C0.664948 5.03187 0.573111 4.61987 0.770582 4.30912Z" fill="#171717"/>
</svg>
